<?xml version="1.0" encoding="iso-8859-1"?>
<!-- Generator: Adobe Illustrator 18.0.0, SVG Export Plug-In . SVG Version: 6.00 Build 0)  -->
<!DOCTYPE svg PUBLIC "-//W3C//DTD SVG 1.1//EN" "http://www.w3.org/Graphics/SVG/1.1/DTD/svg11.dtd">
<svg version="1.1" id="Capa_1" xmlns="http://www.w3.org/2000/svg" xmlns:xlink="http://www.w3.org/1999/xlink" x="0px" y="0px"
	 viewBox="0 0 297 297" style="enable-background:new 0 0 297 297;" xml:space="preserve">
<path d="M278.601,61.681C278.601,27.67,250.931,0,216.92,0c-31.018,0-56.752,23.019-61.041,52.869H94.523L72.25,8.322
	c-2.56-5.121-8.792-7.197-13.908-4.637L24.133,20.791c-5.122,2.56-7.197,8.787-4.637,13.907c2.56,5.122,8.789,7.196,13.907,4.637
	l24.938-12.469l13.002,26.003H54.425c-5.725,0-10.366,4.642-10.366,10.366v184.006C44.059,274.679,66.38,297,93.817,297h83.71
	c27.437,0,49.759-22.321,49.759-49.759V122.473C256.376,117.527,278.601,92.157,278.601,61.681z M206.554,73.603v65.827h-68.75
	L104.89,73.603H206.554z M81.71,73.603l32.914,65.827H64.792V73.603H81.71z M177.527,276.267h-83.71
	c-16.005,0-29.025-13.021-29.025-29.025v-87.079h60.198l48.448,96.898c1.816,3.634,5.477,5.734,9.28,5.733
	c1.558,0,3.14-0.353,4.627-1.097c5.122-2.561,7.197-8.787,4.637-13.908l-43.813-87.626h58.384v87.079
	C206.554,263.246,193.532,276.267,177.527,276.267z M227.286,101.296v-38.06c0-5.725-4.642-10.366-10.366-10.366h-39.983
	c4.044-18.356,20.43-32.136,39.983-32.136c22.578,0,40.947,18.369,40.947,40.947C257.867,80.679,244.86,96.693,227.286,101.296z"/>
<g>
</g>
<g>
</g>
<g>
</g>
<g>
</g>
<g>
</g>
<g>
</g>
<g>
</g>
<g>
</g>
<g>
</g>
<g>
</g>
<g>
</g>
<g>
</g>
<g>
</g>
<g>
</g>
<g>
</g>
</svg>
