<?xml version='1.0' encoding='iso-8859-1'?>
<svg version="1.1" xmlns="http://www.w3.org/2000/svg" viewBox="0 0 371.52 371.52" xmlns:xlink="http://www.w3.org/1999/xlink" enable-background="new 0 0 371.52 371.52">
  <path d="m272.028,116.588l96.401,43.374-60.696-159.962-159.969,60.678 96.906,43.601-43.022,95.022-27.969-27.97h-33.407l-63.662-133.879-73.52,34.624 12.782,27.141 46.48-21.89 44.701,94.004h-65.477v73.137c7.10543e-15,70.057 56.996,127.052 127.052,127.052h11.367c70.057,0 127.052-56.995 127.052-127.052v-73.137h-59.805l24.786-54.743zm18.298-77.9l24.358,64.196-88.557-39.845 64.199-24.351zm-13.279,162.643v43.137c0,53.515-43.538,97.052-97.052,97.052h-11.367c-53.515,0-97.052-43.537-97.052-97.052v-43.137h89.676l46.812,46.812 46.812-46.812h22.171z"/>
</svg>
