<?xml version="1.0" encoding="iso-8859-1"?>
<!-- Generator: Adobe Illustrator 18.0.0, SVG Export Plug-In . SVG Version: 6.00 Build 0)  -->
<!DOCTYPE svg PUBLIC "-//W3C//DTD SVG 1.1//EN" "http://www.w3.org/Graphics/SVG/1.1/DTD/svg11.dtd">
<svg version="1.1" id="Capa_1" xmlns="http://www.w3.org/2000/svg" xmlns:xlink="http://www.w3.org/1999/xlink" x="0px" y="0px"
	 viewBox="0 0 297 297" style="enable-background:new 0 0 297 297;" xml:space="preserve">
<path d="M219.101,12.145l1.254-2.194c1.822-3.189,0.714-7.25-2.475-9.073c-3.19-1.824-7.251-0.713-9.073,2.475l-1.48,2.591
	c-13.284-5.239-27.838-5.582-41.475-0.862c-15.122,5.232-27.302,16.041-34.294,30.434c-2.293,4.719-0.327,10.404,4.393,12.696
	l4.405,2.14h-14.975l-8.431-20.189c-1.477-3.536-4.934-5.839-8.766-5.839H61.157c-5.246,0-9.5,4.254-9.5,9.5s4.254,9.5,9.5,9.5
	h40.697l2.935,7.028H92.507c-3.25,0-6.271,1.669-8.014,4.412c-1.743,2.742-1.96,6.194-0.581,9.136
	c0.199,0.424,19.665,42.741,1.77,74.379c-6.595,11.66-9.801,22.747-9.801,33.895c0,31.869,23.543,58.338,54.15,62.938V278h-21.85
	c-5.246,0-9.5,4.254-9.5,9.5c0,5.246,4.254,9.5,9.5,9.5h62.7c5.246,0,9.5-4.254,9.5-9.5c0-5.246-4.254-9.5-9.5-9.5h-21.85v-42.889
	c30.607-4.6,54.15-31.069,54.15-62.938c0-11.148-3.205-22.235-9.801-33.895c-12.303-21.751-6.948-48.541-2.336-63.298l35.585,17.29
	c1.306,0.635,2.727,0.956,4.152,0.956c1.047,0,2.098-0.173,3.106-0.522c2.381-0.824,4.338-2.56,5.438-4.826
	C252.482,60.8,243.319,28.575,219.101,12.145z M172.851,69.352c-4.906,15.644-10.282,42.394-0.969,67.575h-10.348l-28.22-67.575
	H172.851z M140.944,136.926h-33.763c9.313-25.181,3.938-51.931-0.969-67.575h6.511L140.944,136.926z M180.849,155.926
	c2.232,5.621,3.332,10.991,3.332,16.247c0,24.62-20.03,44.65-44.65,44.65s-44.65-20.03-44.65-44.65
	c0-5.257,1.099-10.626,3.332-16.247H180.849z M197.604,22.959l-15.245,26.679l-9.831-4.777
	C180.288,31.911,190.165,24.235,197.604,22.959z M194.348,55.463l14.389-25.181c0.766,2.19,1.251,4.793,1.406,7.737
	c0.362,6.904-1.14,15.053-4.177,23.089L194.348,55.463z M173.027,22.742c-4.544,4.473-8.797,9.963-12.49,16.293l-6.738-3.274
	C158.888,29.553,165.62,25.104,173.027,22.742z M225.386,70.544l-7.411-3.601c2.781-7.039,4.56-14.16,5.224-20.921
	C226.364,53.656,227.23,62.215,225.386,70.544z"/>
<g>
</g>
<g>
</g>
<g>
</g>
<g>
</g>
<g>
</g>
<g>
</g>
<g>
</g>
<g>
</g>
<g>
</g>
<g>
</g>
<g>
</g>
<g>
</g>
<g>
</g>
<g>
</g>
<g>
</g>
</svg>
